<?xml version="1.0" encoding="utf-8"?>
<!-- Generator: Adobe Illustrator 22.0.1, SVG Export Plug-In . SVG Version: 6.00 Build 0)  -->
<svg version="1.1" id="Layer_1" xmlns="http://www.w3.org/2000/svg" xmlns:xlink="http://www.w3.org/1999/xlink" x="0px" y="0px"
	 viewBox="0 0 1000 500" style="enable-background:new 0 0 1000 500;" xml:space="preserve">
<style type="text/css">
	.st0{fill:#F7931E;stroke:#000000;stroke-width:5;stroke-miterlimit:10;}
</style>
<g>
	<g>
		<path class="st0" d="M173.7,52c70.5,0,115,14,146,43.5c24.5,24,42.5,59,42.5,107c0,58.5-24,106-62.5,135
			c-38,28.5-86.5,39.5-148,39.5h-117v-14c43-4,45-7.5,45-48.5V115c0-43-6-45-45-49V52H173.7z M123.2,310.5c0,37.5,16,48,53.5,48
			c90,0,136-61.5,136-149c0-54.5-18.5-96-58-120c-23-14.5-52-20-85.5-20c-22.5,0-34.5,3-39.5,7c-4.5,3-6.5,8.5-6.5,28V310.5z"/>
		<path class="st0" d="M713.7,66c-33.5,4.5-42,9-60,54c-13.5,33-82.5,200.5-107,262.5h-16.5C500.7,302,457.7,185,429.2,111
			c-14-37-22.5-42-53-45V52h127v14c-37,4-39,10-32,28.5c12.5,36.5,49,136,80.5,219c26.5-64.5,59.5-146,83-209c11-29,5-33.5-36-38.5
			V52h115V66z"/>
	</g>
</g>
</svg>
